HIERARCHY
ROOT WildBoar_ROOTSHJnt
{
	OFFSET 0.000000 44.410820 68.815338
	CHANNELS 6 Xposition Yposition Zposition Xrotation Yrotation Zrotation
	JOINT WildBoar_Spine_01SHJnt
	{
		OFFSET -0.000000 -13.726324 -0.500702
		CHANNELS 3 Xrotation Yrotation Zrotation
		JOINT WildBoar_Spine_02SHJnt
		{
			OFFSET -0.000000 -13.721075 -0.511734
			CHANNELS 3 Xrotation Yrotation Zrotation
			JOINT WildBoar_Spine_03SHJnt
			{
				OFFSET -0.000000 -13.733017 -0.763184
				CHANNELS 3 Xrotation Yrotation Zrotation
				JOINT WildBoar_Spine_04SHJnt
				{
					OFFSET 0.000000 -13.726805 1.066475
					CHANNELS 3 Xrotation Yrotation Zrotation
					JOINT WildBoar_Spine_TopSHJnt
					{
						OFFSET 0.000000 -13.726805 0.709183
						CHANNELS 3 Xrotation Yrotation Zrotation
						JOINT WildBoar_l_Clavicle_01_01SHJnt
						{
							OFFSET 8.670297 0.000000 0.000000
							CHANNELS 3 Xrotation Yrotation Zrotation
							JOINT WildBoar_l_FrontLeg_HipSHJnt
							{
								OFFSET 3.164961 0.548840 -12.164703
								CHANNELS 3 Xrotation Yrotation Zrotation
								JOINT WildBoar_l_FrontLeg_Knee1SHJnt
								{
									OFFSET 0.316314 -0.817221 -32.444130
									CHANNELS 3 Xrotation Yrotation Zrotation
									JOINT WildBoar_l_FrontLeg_Knee2SHJnt
									{
										OFFSET 0.171660 1.067869 -17.603088
										CHANNELS 3 Xrotation Yrotation Zrotation
										JOINT WildBoar_l_FrontLeg_AnkleSHJnt
										{
											OFFSET 0.012912 -0.586981 -1.322436
											CHANNELS 3 Xrotation Yrotation Zrotation
											JOINT WildBoar_l_FrontLeg_BallSHJnt
											{
												OFFSET -0.004807 -3.825893 -5.280976
												CHANNELS 3 Xrotation Yrotation Zrotation
												JOINT WildBoar_l_FrontLeg_ToeSHJnt
												{
													OFFSET -0.006160 -4.905069 -0.000002
													CHANNELS 3 Xrotation Yrotation Zrotation
													End Site
													{
														OFFSET 4.905067 -0.006161 -0.000003
													}
												}
											}
										}
									}
								}
							}
						}
						JOINT WildBoar_r_Clavicle_01_01SHJnt
						{
							OFFSET -8.670297 0.000000 0.000000
							CHANNELS 3 Xrotation Yrotation Zrotation
							JOINT WildBoar_r_FrontLeg_HipSHJnt
							{
								OFFSET -3.164964 0.548840 -12.164703
								CHANNELS 3 Xrotation Yrotation Zrotation
								JOINT WildBoar_r_FrontLeg_Knee1SHJnt
								{
									OFFSET -0.316322 -0.817221 -32.444130
									CHANNELS 3 Xrotation Yrotation Zrotation
									JOINT WildBoar_r_FrontLeg_Knee2SHJnt
									{
										OFFSET -0.171665 1.067869 -17.603088
										CHANNELS 3 Xrotation Yrotation Zrotation
										JOINT WildBoar_r_FrontLeg_AnkleSHJnt
										{
											OFFSET -0.012913 -0.586981 -1.322436
											CHANNELS 3 Xrotation Yrotation Zrotation
											JOINT WildBoar_r_FrontLeg_BallSHJnt
											{
												OFFSET 0.004806 -3.825893 -5.280976
												CHANNELS 3 Xrotation Yrotation Zrotation
												JOINT WildBoar_r_FrontLeg_ToeSHJnt
												{
													OFFSET 0.006160 -4.905069 -0.000002
													CHANNELS 3 Xrotation Yrotation Zrotation
													End Site
													{
														OFFSET 4.905068 0.006161 -0.000002
													}
												}
											}
										}
									}
								}
							}
						}
						JOINT WildBoar_Neck_01SHJnt
						{
							OFFSET -0.000000 -12.476246 -2.105774
							CHANNELS 3 Xrotation Yrotation Zrotation
							JOINT WildBoar_Neck_02SHJnt
							{
								OFFSET 0.000000 -10.017231 1.165779
								CHANNELS 3 Xrotation Yrotation Zrotation
								JOINT WildBoar_Neck_TopSHJnt
								{
									OFFSET 0.000000 -9.610825 0.768044
									CHANNELS 3 Xrotation Yrotation Zrotation
									JOINT WildBoar_Head_JawSHJnt
									{
										OFFSET -0.000001 -11.273338 -4.973049
										CHANNELS 3 Xrotation Yrotation Zrotation
										JOINT WildBoar_Head_JawEndSHJnt
										{
											OFFSET -0.000002 -22.190353 -15.124695
											CHANNELS 3 Xrotation Yrotation Zrotation
											End Site
											{
												OFFSET -0.000002 -22.110291 -15.241497
											}
										}
									}
									JOINT WildBoar_Head_TopSHJnt
									{
										OFFSET 0.000002 -15.944977 17.523094
										CHANNELS 3 Xrotation Yrotation Zrotation
										JOINT WildBoar_l_Ear_01_01SHJnt
										{
											OFFSET 10.362524 11.406597 -2.807991
											CHANNELS 3 Xrotation Yrotation Zrotation
											JOINT WildBoar_l_Ear_01_02SHJnt
											{
												OFFSET 6.918999 -0.514683 5.827293
												CHANNELS 3 Xrotation Yrotation Zrotation
												JOINT WildBoar_l_Ear_01_03SHJnt
												{
													OFFSET 5.957382 0.355659 6.469810
													CHANNELS 3 Xrotation Yrotation Zrotation
													End Site
													{
														OFFSET 5.020468 -6.741234 -2.612671
													}
												}
											}
										}
										JOINT WildBoar_r_Ear_01_01SHJnt
										{
											OFFSET -10.362526 11.406597 -2.807991
											CHANNELS 3 Xrotation Yrotation Zrotation
											JOINT WildBoar_r_Ear_01_02SHJnt
											{
												OFFSET -6.918997 -0.514683 5.827293
												CHANNELS 3 Xrotation Yrotation Zrotation
												JOINT WildBoar_r_Ear_01_03SHJnt
												{
													OFFSET -5.957380 0.355659 6.469810
													CHANNELS 3 Xrotation Yrotation Zrotation
													End Site
													{
														OFFSET -5.020468 -6.741234 -2.612671
													}
												}
											}
										}
										JOINT WildBoar_Nose_01_01SHJnt
										{
											OFFSET 0.146534 -15.145607 -20.472496
											CHANNELS 3 Xrotation Yrotation Zrotation
											JOINT WildBoar_Nose_01_02SHJnt
											{
												OFFSET -0.000001 -9.738365 -5.125526
												CHANNELS 3 Xrotation Yrotation Zrotation
												End Site
												{
													OFFSET 0.000001 -6.131317 9.138596
												}
											}
										}
									}
								}
							}
						}
					}
				}
			}
		}
	}
	JOINT WildBoar_l_HindLeg_HipSHJnt
	{
		OFFSET 11.907801 0.071259 -9.892372
		CHANNELS 3 Xrotation Yrotation Zrotation
		JOINT WildBoar_l_HindLeg_Knee1SHJnt
		{
			OFFSET -1.208079 8.601734 -32.196701
			CHANNELS 3 Xrotation Yrotation Zrotation
			JOINT WildBoar_l_HindLeg_Knee2SHJnt
			{
				OFFSET 0.929813 -5.149776 -18.902822
				CHANNELS 3 Xrotation Yrotation Zrotation
				JOINT WildBoar_l_HindLeg_AnkleSHJnt
				{
					OFFSET -0.016349 -0.419094 -2.601883
					CHANNELS 3 Xrotation Yrotation Zrotation
					JOINT WildBoar_l_HindLeg_BallSHJnt
					{
						OFFSET -0.062816 -2.064716 -5.221140
						CHANNELS 3 Xrotation Yrotation Zrotation
						JOINT WildBoar_l_HindLeg_ToeSHJnt
						{
							OFFSET 0.563698 -5.159508 -0.000093
							CHANNELS 3 Xrotation Yrotation Zrotation
							End Site
							{
								OFFSET 5.159507 0.563698 0.000025
							}
						}
					}
				}
			}
		}
	}
	JOINT WildBoar_r_HindLeg_HipSHJnt
	{
		OFFSET -11.907801 0.071259 -9.892372
		CHANNELS 3 Xrotation Yrotation Zrotation
		JOINT WildBoar_r_HindLeg_Knee1SHJnt
		{
			OFFSET 1.208084 8.601734 -32.196701
			CHANNELS 3 Xrotation Yrotation Zrotation
			JOINT WildBoar_r_HindLeg_Knee2SHJnt
			{
				OFFSET -0.929811 -5.149776 -18.902822
				CHANNELS 3 Xrotation Yrotation Zrotation
				JOINT WildBoar_r_HindLeg_AnkleSHJnt
				{
					OFFSET 0.016349 -0.419094 -2.601883
					CHANNELS 3 Xrotation Yrotation Zrotation
					JOINT WildBoar_r_HindLeg_BallSHJnt
					{
						OFFSET 0.062817 -2.064716 -5.221139
						CHANNELS 3 Xrotation Yrotation Zrotation
						JOINT WildBoar_r_HindLeg_ToeSHJnt
						{
							OFFSET -0.563698 -5.159508 -0.000092
							CHANNELS 3 Xrotation Yrotation Zrotation
							End Site
							{
								OFFSET 5.159507 -0.563698 -0.000023
							}
						}
					}
				}
			}
		}
	}
	JOINT WildBoar_Tail_01_01SHJnt
	{
		OFFSET 0.000000 20.717888 9.172180
		CHANNELS 3 Xrotation Yrotation Zrotation
		JOINT WildBoar_Tail_01_02SHJnt
		{
			OFFSET -0.000000 5.092255 -8.034218
			CHANNELS 3 Xrotation Yrotation Zrotation
			JOINT WildBoar_Tail_01_03SHJnt
			{
				OFFSET -0.000000 -0.708420 -11.714390
				CHANNELS 3 Xrotation Yrotation Zrotation
				End Site
				{
					OFFSET -0.000000 11.707321 -0.816906
				}
			}
		}
	}
}
MOTION
Frames: 5
Frame Time: 0.033333
-0.000000 46.090019 59.034630 2.719723 1.901730 -0.776461 0.085721 -0.653056 0.267628 0.012039 -1.045169 0.428499 -0.130174 -0.184314 0.075077 -0.302587 -0.008008 0.003213 0.296079 -0.010275 0.004180 0.000000 -0.000000 0.000000 -8.518424 -0.066719 -0.036305 9.738455 0.007795 0.094514 -6.403216 0.005630 -0.059205 2.520810 0.065674 -0.006030 -0.000000 -0.000019 -0.000000 -0.000000 -0.000000 0.000000 0.000000 -0.000000 0.000000 -11.871863 0.480193 0.409385 32.889451 -0.088728 -0.303599 73.860764 3.692262 -3.308194 -4.547341 -1.962509 0.823114 0.000000 -0.000077 -0.000000 0.000000 0.000000 -0.000000 16.353428 -2.589169 -0.489423 18.927127 -3.318875 0.294672 20.009982 -1.836387 0.522564 -14.558536 -0.000002 0.000003 -0.000002 0.000000 0.000000 0.000012 -0.000009 -0.000005 -2.622768 6.772982 2.326052 -3.481206 6.665119 1.172006 -0.000004 0.000013 -0.000004 2.942908 -3.986085 -3.120958 1.979335 -4.551878 -3.130603 -0.000000 0.000000 0.000009 0.000003 -0.000001 0.000000 0.000000 0.000001 0.000002 13.376525 0.735762 0.951273 -47.509447 -6.656479 -3.203872 -9.121888 0.089909 1.721092 40.433699 3.785562 -2.411974 -0.000000 0.000004 -0.000000 0.000000 0.000000 -0.000000 12.142999 -4.860308 1.177537 -44.452244 6.331435 2.841704 -11.222005 0.072193 -0.885035 40.775502 -3.320153 2.165872 0.000001 0.000006 0.000000 -0.000000 0.000000 0.000000 -0.000015 -0.000002 -0.000005 0.358009 2.624944 -0.597977 -0.000000 0.000001 -0.000000 
0.000000 46.090027 59.032997 2.577555 1.776915 -0.799290 0.400010 -0.608658 0.278729 -0.002471 -0.974159 0.445963 -0.386920 -0.172165 0.077427 -0.841632 -0.007511 0.003245 0.821953 -0.009600 0.004311 -0.000000 0.000000 -0.000000 -8.241632 -0.065025 -0.035032 9.339039 0.007165 0.090673 -6.141388 0.005225 -0.056744 2.493333 0.064014 -0.005518 0.000000 0.000012 -0.000000 -0.000000 -0.000000 0.000000 -0.000000 -0.000000 -0.000000 -13.582355 0.610821 0.567660 36.462617 -0.108469 -0.332297 71.457221 4.478289 -3.680633 -3.911384 -2.225005 0.935530 0.000000 -0.000083 0.000000 -0.000000 -0.000000 -0.000000 16.457467 -2.704285 -0.672483 19.072444 -3.526466 0.072292 20.407444 -2.013167 0.363302 -14.011138 0.000002 0.000009 -0.000000 0.000000 0.000000 0.000012 -0.000008 -0.000005 -2.652274 6.881333 2.333745 -3.518512 6.770488 1.164210 -0.000005 0.000009 -0.000004 3.050347 -3.896535 -2.652119 2.173234 -4.434329 -2.689660 0.000001 0.000003 0.000004 -0.000002 -0.000001 -0.000001 -0.000003 0.000001 0.000001 13.530087 0.892587 0.952072 -47.422587 -6.647516 -3.193350 -9.181024 0.077546 1.695880 40.391109 3.775567 -2.404158 -0.000000 0.000004 -0.000000 0.000000 -0.000000 -0.000000 12.342463 -4.706623 1.187932 -44.566793 6.343964 2.854964 -11.143924 0.063784 -0.913252 40.753758 -3.333026 2.172152 0.000001 0.000006 0.000000 -0.000000 0.000000 -0.000000 -0.000017 -0.000002 -0.000005 0.357378 2.676062 -0.598262 -0.000001 -0.000000 -0.000000 
0.000000 46.090034 59.031601 2.438418 1.652933 -0.820467 0.831122 -0.563816 0.289946 -0.020222 -0.902560 0.463625 -0.751329 -0.160084 0.079616 -1.620812 -0.007033 0.003252 1.582423 -0.008928 0.004435 -0.000000 0.000000 0.000000 -7.938612 -0.063416 -0.033420 8.851030 0.006425 0.085974 -5.822109 0.004784 -0.053723 2.467147 0.062415 -0.005021 0.000000 0.000029 -0.000000 -0.000000 -0.000000 0.000000 -0.000000 0.000000 0.000000 -15.543270 0.633485 0.653438 39.791873 -0.128440 -0.357883 69.295657 5.384674 -4.209159 -2.918915 -2.516400 1.069028 0.000000 -0.000086 -0.000000 -0.000000 0.000000 -0.000000 16.545047 -2.805430 -0.842666 19.195094 -3.711016 -0.136158 20.743566 -2.171891 0.213065 -13.347072 0.000003 0.000004 -0.000002 -0.000000 0.000000 0.000014 -0.000009 -0.000004 -2.686880 7.103605 2.279183 -3.557866 6.982626 1.082118 -0.000000 0.000012 -0.000002 3.136170 -3.788827 -2.187781 2.346774 -4.296213 -2.251926 -0.000004 0.000001 0.000006 -0.000000 0.000000 0.000000 -0.000003 0.000001 0.000001 13.678957 1.047691 0.950702 -47.334720 -6.638436 -3.182714 -9.240882 0.065698 1.670934 40.349937 3.765173 -2.396202 -0.000000 0.000004 0.000000 -0.000000 -0.000000 0.000000 12.537974 -4.554193 1.195810 -44.679177 6.356229 2.867993 -11.067212 0.056232 -0.941188 40.731987 -3.346422 2.178727 0.000001 0.000006 0.000001 0.000000 0.000000 0.000001 -0.000017 -0.000002 -0.000005 0.351539 2.559722 -0.594858 -0.000001 -0.000000 -0.000000 
0.000000 46.090038 59.030457 2.307262 1.532014 -0.839281 1.318236 -0.519662 0.300239 -0.037804 -0.832014 0.479874 -1.168492 -0.148289 0.081562 -2.525069 -0.006574 0.003250 2.465166 -0.008271 0.004542 -0.000000 -0.000000 0.000000 -7.631618 -0.061954 -0.031635 8.320618 0.005665 0.080859 -5.475516 0.004348 -0.050427 2.443404 0.060954 -0.004561 0.000000 0.000030 0.000000 -0.000000 -0.000000 0.000000 -0.000000 -0.000000 0.000000 -17.817127 0.612371 0.713285 43.369078 -0.151518 -0.384036 66.609227 6.481867 -4.768643 -1.609423 -2.757664 1.193533 -0.000000 -0.000082 -0.000001 -0.000000 0.000001 -0.000000 16.623514 -2.890321 -1.002802 19.305642 -3.870272 -0.336070 21.046962 -2.311795 0.066502 -12.802118 0.000000 -0.000001 0.000002 0.000000 -0.000000 0.000012 -0.000008 -0.000004 -2.738710 7.439515 2.197987 -3.616843 7.303370 0.959380 -0.000002 0.000008 -0.000003 3.197371 -3.658336 -1.732235 2.496705 -4.133006 -1.821763 -0.000004 0.000005 0.000008 -0.000000 -0.000001 0.000000 -0.000003 0.000000 0.000000 13.817404 1.198161 0.946907 -47.247567 -6.629410 -3.172181 -9.300324 0.054675 1.646658 40.311561 3.754495 -2.388241 -0.000000 0.000004 -0.000000 0.000000 -0.000000 -0.000000 12.723106 -4.405916 1.200662 -44.787425 6.368022 2.880567 -10.993256 0.049644 -0.968298 40.711035 -3.360086 2.185487 0.000001 0.000006 0.000001 0.000000 0.000000 0.000001 -0.000014 -0.000002 -0.000005 0.338071 2.266127 -0.586798 -0.000000 -0.000000 0.000000 
-0.000000 46.090046 59.029564 2.189037 1.416391 -0.855009 1.801976 -0.477195 0.308784 -0.052908 -0.764244 0.493417 -1.584013 -0.137008 0.083194 -3.435887 -0.006141 0.003244 3.354402 -0.007641 0.004633 -0.000000 -0.000000 0.000000 -7.344960 -0.060699 -0.029888 7.800040 0.004968 0.075831 -5.135656 0.003953 -0.047186 2.423206 0.059719 -0.004163 0.000000 0.000029 0.000000 -0.000000 -0.000000 0.000000 -0.000000 -0.000000 0.000000 -20.067982 0.583650 0.765588 46.369891 -0.172101 -0.404826 63.751101 7.456127 -5.194108 -0.210721 -2.863302 1.267089 0.000000 -0.000079 -0.000000 0.000000 -0.000000 -0.000000 16.692555 -2.961118 -1.146392 19.403403 -4.005774 -0.517257 21.315390 -2.432940 -0.067371 -12.664292 -0.000001 0.000003 0.000002 0.000000 0.000000 0.000007 -0.000007 -0.000005 -2.802257 7.856473 2.099329 -3.689262 7.701743 0.809222 -0.000001 0.000010 -0.000003 3.230983 -3.500440 -1.289766 2.619853 -3.940199 -1.403535 -0.000002 0.000001 0.000002 -0.000000 -0.000001 0.000000 -0.000002 0.000002 0.000002 13.939777 1.341082 0.940498 -47.162914 -6.620628 -3.161960 -9.358143 0.044775 1.623446 40.277380 3.743686 -2.380430 -0.000000 0.000004 -0.000000 0.000000 -0.000000 -0.000000 12.891458 -4.264722 1.202064 -44.889578 6.379127 2.892450 -10.923375 0.044054 -0.994040 40.691764 -3.373706 2.192291 0.000001 0.000006 0.000000 0.000000 0.000000 0.000000 -0.000019 -0.000002 -0.000005 0.317274 1.815318 -0.574400 0.000000 -0.000000 -0.000000 
